<svg version="1.1" id="Layer_1" xmlns="http://www.w3.org/2000/svg" xmlns:xlink="http://www.w3.org/1999/xlink" x="0px" y="0px" viewBox="0 0 500 500" style="width: 183px;" xml:space="preserve" data-imageid="data-processing-93" imageName="Data Processing" class="illustrations_image">
<style type="text/css">
	.st0_data-processing-93{fill:#D1D3D4;}
	.st1_data-processing-93{fill:#231F20;}
	.st2_data-processing-93{fill:#FFFFFF;}
	.st3_data-processing-93{fill:#68E1FD;}
</style>
<g id="connecting_line_data-processing-93">
	<path class="st0_data-processing-93" d="M173.8,240.8c-0.3,0-0.6-0.3-0.6-0.6c0,0,0,0,0,0v-71.5c0-13.1,10.6-23.7,23.7-23.7h17.6&#10;&#9;&#9;c0.3,0,0.6,0.3,0.6,0.6l0,0c0,0.3-0.3,0.6-0.6,0.6l0,0h-17.6c-12.4,0-22.5,10.1-22.5,22.5v71.5&#10;&#9;&#9;C174.4,240.5,174.2,240.8,173.8,240.8z"/>
	<path class="st0_data-processing-93" d="M173.8,240.9c-0.3,0-0.6-0.3-0.6-0.6c0,0,0,0,0,0v-18.9c0-19.6-15.9-35.6-35.6-35.6h-23.1&#10;&#9;&#9;c-0.3,0-0.6-0.3-0.6-0.6l0,0c0-0.3,0.3-0.6,0.6-0.6h23.1c20.3,0,36.8,16.5,36.8,36.8v18.9C174.4,240.6,174.2,240.9,173.8,240.9z"/>
	<path class="st0_data-processing-93" d="M399.2,293.5h-66.8c-0.3,0-0.6-0.3-0.6-0.6s0.3-0.6,0.6-0.6h66.8c0.3,0,0.6,0.3,0.6,0.6&#10;&#9;&#9;S399.5,293.5,399.2,293.5z"/>
	<path class="st0_data-processing-93" d="M342.1,201.6H225.4c-0.3,0-0.6-0.3-0.6-0.6l0,0v-46.8c0-0.3,0.3-0.6,0.6-0.6c0.3,0,0.6,0.3,0.6,0.6&#10;&#9;&#9;c0,0,0,0,0,0v46.2h116c0.3,0,0.6,0.3,0.6,0.6S342.4,201.5,342.1,201.6L342.1,201.6z"/>
	<path class="st0_data-processing-93" d="M159.4,316.3H52.4c-0.3,0-0.6-0.3-0.6-0.6c0-0.3,0.3-0.6,0.6-0.6h107.1c0.3,0,0.6,0.3,0.6,0.6&#10;&#9;&#9;C160,316.1,159.8,316.3,159.4,316.3z"/>
	<path class="st0_data-processing-93" d="M382.5,200.8h-24.3c-0.3,0-0.6-0.3-0.6-0.6c0-0.3,0.3-0.6,0.6-0.6h24.3c6.1,0,11-4.9,11-11v-13.4&#10;&#9;&#9;c0-0.3,0.3-0.6,0.6-0.6c0.3,0,0.6,0.3,0.6,0.6v13.4C394.7,195.3,389.2,200.8,382.5,200.8z"/>
	<path class="st0_data-processing-93" d="M425.6,260.9c-0.3,0-0.6-0.3-0.6-0.6v-39.1c0-11.2-9.1-20.3-20.4-20.4h-39c-0.3,0-0.6-0.3-0.6-0.6&#10;&#9;&#9;s0.3-0.6,0.6-0.6h39c11.9,0,21.6,9.7,21.6,21.6v39.1C426.2,260.6,426,260.9,425.6,260.9L425.6,260.9z"/>
</g>
<path id="Floor_data-processing-93" class="st0_data-processing-93" d="M458.2,372.8H32.4c-0.3,0-0.6-0.3-0.6-0.6c0-0.3,0.3-0.6,0.6-0.6h425.8c0.3,0,0.6,0.3,0.6,0.6&#10;&#9;S458.5,372.8,458.2,372.8z"/>
<g id="Server_1_data-processing-93">
	<rect x="37.7" y="277.3" class="st1_data-processing-93" width="67.6" height="63.2"/>
	<path class="st1_data-processing-93" d="M105.3,341.2H37.7c-0.4,0-0.7-0.3-0.7-0.7v-63.2c0-0.4,0.3-0.7,0.7-0.7h67.6c0.4,0,0.7,0.3,0.7,0.7v63.2&#10;&#9;&#9;C106,340.9,105.7,341.2,105.3,341.2z M38.4,339.8h66.2V278H38.4L38.4,339.8z"/>
	<path class="st2_data-processing-93" d="M37.8,328.1h67.5c3,0,5.4,2.4,5.4,5.4v11.4c0,3-2.4,5.4-5.4,5.4H37.8c-3,0-5.4-2.4-5.4-5.4v-11.4&#10;&#9;&#9;C32.4,330.6,34.8,328.1,37.8,328.1z"/>
	<path class="st1_data-processing-93" d="M105.3,351H37.8c-3.3,0-6-2.7-6.1-6v-11.5c0-3.4,2.7-6.1,6.1-6.1c0,0,0,0,0,0h67.5c3.4,0,6.1,2.7,6.1,6.1l0,0&#10;&#9;&#9;V345C111.3,348.3,108.6,351,105.3,351z M37.8,328.8c-2.6,0-4.7,2.1-4.7,4.7V345c0,2.6,2.1,4.7,4.7,4.7h67.5c2.6,0,4.7-2.1,4.7-4.7&#10;&#9;&#9;v-11.5c0-2.6-2.1-4.7-4.7-4.7L37.8,328.8z"/>
	<path class="st2_data-processing-93" d="M37.8,301.1h67.5c3,0,5.4,2.4,5.4,5.4v11.4c0,3-2.4,5.4-5.4,5.4H37.8c-3,0-5.4-2.4-5.4-5.4v-11.4&#10;&#9;&#9;C32.4,303.5,34.8,301.1,37.8,301.1z"/>
	<path class="st1_data-processing-93" d="M105.3,324H37.8c-3.4,0-6.1-2.7-6.1-6.1l0,0v-11.4c0-3.3,2.7-6.1,6.1-6.1h67.5c3.3,0,6.1,2.7,6.1,6.1v11.4&#10;&#9;&#9;C111.4,321.3,108.7,324,105.3,324C105.3,324,105.3,324,105.3,324z M37.8,301.8c-2.6,0-4.7,2.1-4.7,4.7v11.4c0,2.6,2.1,4.7,4.7,4.7&#10;&#9;&#9;h67.5c2.6,0,4.7-2.1,4.7-4.7v-11.4c0-2.6-2.1-4.7-4.7-4.7L37.8,301.8z"/>
	<path class="st2_data-processing-93" d="M37.8,274.1h67.5c3,0,5.4,2.4,5.4,5.4v11.4c0,3-2.4,5.4-5.4,5.4H37.8c-3,0-5.4-2.4-5.4-5.4v-11.4&#10;&#9;&#9;C32.4,276.5,34.8,274.1,37.8,274.1z"/>
	<path class="st1_data-processing-93" d="M105.3,296.9H37.8c-3.4,0-6.1-2.7-6.1-6.1l0,0v-11.4c0-3.4,2.7-6.1,6.1-6.1c0,0,0,0,0,0h67.5&#10;&#9;&#9;c3.4,0,6.1,2.7,6.1,6.1l0,0v11.4C111.4,294.2,108.7,296.9,105.3,296.9z M37.8,274.8c-2.6,0-4.7,2.1-4.7,4.7v11.4&#10;&#9;&#9;c0,2.6,2.1,4.7,4.7,4.7h67.5c2.6,0,4.7-2.1,4.7-4.7v-11.4c0-2.6-2.1-4.7-4.7-4.7H37.8z"/>
	<circle class="st2_data-processing-93" cx="42.1" cy="281.8" r="1.5"/>
	<path class="st0_data-processing-93" d="M42.1,284c-1.2,0-2.2-1-2.2-2.1c0-1.2,1-2.2,2.1-2.2c1.2,0,2.2,1,2.2,2.1c0,0,0,0,0,0&#10;&#9;&#9;C44.2,283,43.3,284,42.1,284C42.1,284,42.1,284,42.1,284z M42.1,281c-0.5,0-0.8,0.4-0.8,0.8c0,0.5,0.4,0.8,0.8,0.8s0.8-0.4,0.8-0.8&#10;&#9;&#9;c0,0,0,0,0,0C42.9,281.4,42.6,281,42.1,281z"/>
	<circle class="st2_data-processing-93" cx="48.4" cy="281.8" r="1.5"/>
	<path class="st0_data-processing-93" d="M48.4,284c-1.2,0-2.2-1-2.2-2.1c0-1.2,1-2.2,2.1-2.2c1.2,0,2.2,1,2.2,2.1c0,0,0,0,0,0&#10;&#9;&#9;C50.5,283,49.5,284,48.4,284C48.4,284,48.4,284,48.4,284z M48.4,281c-0.5,0-0.8,0.4-0.8,0.8c0,0.5,0.4,0.8,0.8,0.8s0.8-0.4,0.8-0.8&#10;&#9;&#9;c0,0,0,0,0,0C49.2,281.4,48.8,281,48.4,281C48.4,281,48.4,281,48.4,281z"/>
	<circle class="st2_data-processing-93" cx="54.6" cy="281.8" r="1.5"/>
	<path class="st0_data-processing-93" d="M54.6,284c-1.2,0-2.2-1-2.2-2.1c0-1.2,1-2.2,2.1-2.2c1.2,0,2.2,1,2.2,2.1c0,0,0,0,0,0&#10;&#9;&#9;C56.8,283,55.8,284,54.6,284C54.6,284,54.6,284,54.6,284z M54.6,281c-0.5,0-0.8,0.4-0.8,0.8c0,0.5,0.4,0.8,0.8,0.8s0.8-0.4,0.8-0.8&#10;&#9;&#9;c0,0,0,0,0,0C55.4,281.4,55.1,281,54.6,281z"/>
</g>
<g id="Folder_data-processing-93">
	<polyline class="st2_data-processing-93" points="200.9,162.7 196.9,127.6 250.2,127.6 243.1,163.6 200.9,162.7 &#9;"/>
	<path class="st1_data-processing-93" d="M243.1,164.3L243.1,164.3l-42.2-0.9c-0.3,0-0.6-0.3-0.7-0.6l-4-35.1c0-0.2,0-0.4,0.2-0.5&#10;&#9;&#9;c0.1-0.1,0.3-0.2,0.5-0.2h53.3c0.2,0,0.4,0.1,0.5,0.2c0.1,0.2,0.2,0.4,0.1,0.6l-7.1,36C243.7,164.1,243.4,164.3,243.1,164.3z&#10;&#9;&#9; M201.5,162.1l41,0.8l6.8-34.6h-51.7L201.5,162.1z"/>
	<polygon class="st1_data-processing-93" points="200.9,162.7 200.9,120.7 250.7,120.7 250.7,163.6 &#9;"/>
	<path class="st1_data-processing-93" d="M250.7,164.3L250.7,164.3l-49.8-0.9c-0.4,0-0.7-0.3-0.7-0.7v-42c0-0.4,0.3-0.7,0.7-0.7c0,0,0,0,0,0h49.8&#10;&#9;&#9;c0.4,0,0.7,0.3,0.7,0.7c0,0,0,0,0,0v42.9C251.4,164,251.1,164.3,250.7,164.3L250.7,164.3z M201.6,162.1l48.5,0.8v-41.5h-48.5V162.1&#10;&#9;&#9;z"/>
	<polygon class="st2_data-processing-93" points="200.9,162.7 207.4,130.7 235.1,130.7 237.3,125 259,125 250.5,163.6 &#9;"/>
	<path class="st1_data-processing-93" d="M250.5,164.3L250.5,164.3l-49.6-0.9c-0.4,0-0.7-0.3-0.7-0.7c0,0,0-0.1,0-0.1l6.5-32.1c0.1-0.3,0.3-0.5,0.7-0.5&#10;&#9;&#9;h27.3l2-5.2c0.1-0.3,0.4-0.4,0.6-0.4H259c0.2,0,0.4,0.1,0.5,0.2c0.1,0.2,0.2,0.4,0.1,0.6l-8.4,38.6&#10;&#9;&#9;C251.2,164.1,250.9,164.3,250.5,164.3z M201.8,162.1l48.2,0.9l8.2-37.2h-20.4l-2,5.2c-0.1,0.3-0.3,0.4-0.6,0.4H208L201.8,162.1z"/>
</g>
<g id="Laptop_data-processing-93">
	<path class="st3_data-processing-93 targetColor" d="M151.7,236.2h187.1c7.7,0,14,6.3,14,14v114.2l0,0H137.8l0,0V250.2C137.8,242.5,144,236.2,151.7,236.2z" style="fill: #0f6cbd;"/>
	<rect x="151.2" y="247.7" class="st2_data-processing-93" width="188.2" height="116.8"/>
	<path class="st3_data-processing-93 targetColor" d="M115.4,364.4h259.8l0,0l0,0c0,8.6-6.9,15.6-15.5,15.6c0,0,0,0,0,0H130.9C122.3,380,115.4,373,115.4,364.4&#10;&#9;&#9;L115.4,364.4L115.4,364.4L115.4,364.4z" style="fill: #0f6cbd;"/>
	<path class="st1_data-processing-93" d="M370.7,365.1H119.8c-0.4,0-0.7-0.3-0.7-0.7s0.3-0.7,0.7-0.7c0,0,0,0,0,0h250.9c0.4,0,0.7,0.3,0.7,0.7&#10;&#9;&#9;C371.4,364.8,371.1,365.1,370.7,365.1C370.7,365.1,370.7,365.1,370.7,365.1z"/>
</g>
<g id="Note_data-processing-93">
	<polygon class="st2_data-processing-93" points="422.1,179.5 384.4,179.5 384.4,127.4 430.6,127.4 430.6,169.3 &#9;"/>
	<path class="st1_data-processing-93" d="M422.1,180.2h-37.8c-0.4,0-0.7-0.3-0.7-0.7v-52.1c0-0.4,0.3-0.7,0.7-0.7h46.2c0.4,0,0.7,0.3,0.7,0.7v41.9&#10;&#9;&#9;c0,0.2-0.1,0.3-0.2,0.4l-8.5,10.2C422.5,180.1,422.3,180.2,422.1,180.2z M385.1,178.8h36.8l8.1-9.8v-41h-44.9V178.8z"/>
	<polyline class="st1_data-processing-93" points="422.1,179.5 422.1,168.8 430.6,168.8 &#9;"/>
	<path class="st1_data-processing-93" d="M422.1,180.2c-0.4,0-0.7-0.3-0.7-0.7c0,0,0,0,0,0v-10.7c0-0.4,0.3-0.7,0.7-0.7c0,0,0,0,0,0h8.5&#10;&#9;&#9;c0.4,0,0.7,0.3,0.7,0.7c0,0.4-0.3,0.7-0.7,0.7h-7.8v10.1C422.8,179.9,422.5,180.2,422.1,180.2C422.1,180.2,422.1,180.2,422.1,180.2&#10;&#9;&#9;z"/>
	<path class="st0_data-processing-93" d="M423.6,138.5h-32.2c-0.3,0-0.6-0.2-0.7-0.5s0.2-0.6,0.5-0.7c0.1,0,0.1,0,0.2,0h32.2c0.3,0,0.6,0.2,0.7,0.5&#10;&#9;&#9;s-0.2,0.6-0.5,0.7C423.7,138.5,423.6,138.5,423.6,138.5z"/>
	<path class="st0_data-processing-93" d="M423.6,146.4h-32.2c-0.3,0-0.6-0.3-0.6-0.6s0.3-0.6,0.6-0.6h32.2c0.3,0,0.6,0.3,0.6,0.6&#10;&#9;&#9;S423.9,146.4,423.6,146.4z"/>
	<path class="st0_data-processing-93" d="M423.6,154.2h-32.2c-0.3,0-0.6-0.3-0.6-0.6s0.3-0.6,0.6-0.6h32.2c0.3,0,0.6,0.3,0.6,0.6&#10;&#9;&#9;S423.9,154.2,423.6,154.2z"/>
	<path class="st0_data-processing-93" d="M423.6,162.1h-32.2c-0.3,0-0.6-0.2-0.7-0.5s0.2-0.6,0.5-0.7c0.1,0,0.1,0,0.2,0h32.2c0.3,0,0.6,0.2,0.7,0.5&#10;&#9;&#9;s-0.2,0.6-0.5,0.7C423.7,162.1,423.6,162.1,423.6,162.1z"/>
</g>
<g id="Cloud_data-processing-93">
	<path class="st2_data-processing-93" d="M358.2,202.9c-0.1,0.7-0.3,1.4-0.5,2c-1.5,6.1-7,10.3-13.2,10.4c-16.4,0-32.8,0-49.3,0&#10;&#9;&#9;c-7.1-0.1-13.2-5.1-14.6-12c-1.4-7,2.4-14,9-16.7c0.5-0.1,0.8-0.5,0.8-1c0.8-7.5,9.2-12.4,16.1-7.9l0.6,0.4&#10;&#9;&#9;c2.6-5.4,7.3-9.4,13.1-11c4.1-1.2,8.4-1,12.3,0.5c8.4,3.1,13.9,11.3,13.4,20.3c0.6,0.1,1.2,0.2,1.9,0.4c5.7,1.7,9.3,5.4,10.3,11.3&#10;&#9;&#9;c0,0.1,0.1,0.3,0.1,0.4L358.2,202.9z"/>
	<path class="st1_data-processing-93" d="M318.7,216c-8.1,0-15.9,0-23.5,0c-7.4-0.1-13.8-5.3-15.2-12.6c-1.4-7.3,2.5-14.6,9.4-17.4&#10;&#9;&#9;c0.3-0.1,0.3-0.2,0.4-0.4c0.5-4,2.9-7.4,6.5-9.1c3.4-1.7,7.5-1.4,10.6,0.7c2.7-5.2,7.5-9.1,13.1-10.7c4.2-1.2,8.6-1,12.7,0.6&#10;&#9;&#9;c8.5,3.1,14.1,11.3,13.9,20.4c0.5,0.1,0.9,0.2,1.3,0.3c6.1,1.8,9.7,5.8,10.8,11.9c0,0.1,0,0.1,0.1,0.2l0,0.2c0,0.1,0,0.1,0,0.2v2.8&#10;&#9;&#9;c0,0,0,0.1,0,0.1l-0.1,0.6c-0.1,0.5-0.2,1-0.3,1.4c-1.6,6.4-7.3,10.8-13.9,10.9H318.7z M301,176.7c-1.4,0-2.8,0.4-4.1,1&#10;&#9;&#9;c-3.1,1.5-5.3,4.5-5.7,8c0,0.7-0.5,1.3-1.2,1.5c-6.3,2.6-10,9.3-8.6,15.9c1.4,6.6,7.1,11.4,13.9,11.5c15.3,0,31.4,0,49.3,0&#10;&#9;&#9;c6,0,11.1-4.1,12.6-9.9c0.1-0.5,0.2-0.9,0.3-1.4l0.1-0.6v-2.6c-0.1-0.1-0.1-0.3-0.1-0.4c-1-5.6-4.2-9.1-9.8-10.8&#10;&#9;&#9;c-0.4-0.1-0.8-0.2-1.2-0.3c-0.2,0-0.4-0.1-0.6-0.1c-0.3-0.1-0.6-0.4-0.5-0.7c0.5-8.7-4.8-16.6-12.9-19.6c-3.8-1.4-8-1.6-11.9-0.5&#10;&#9;&#9;c-5.6,1.6-9.7,5.1-12.6,10.6c-0.1,0.2-0.2,0.3-0.4,0.3c-0.2,0.1-0.4,0-0.5-0.1l-0.6-0.4C304.7,177.2,302.9,176.7,301,176.7z&#10;&#9;&#9; M358.2,202.9L358.2,202.9z"/>
</g>
<g id="Server_2_data-processing-93">
	<rect x="389.4" y="254.2" class="st1_data-processing-93" width="72.5" height="67.8"/>
	<path class="st1_data-processing-93" d="M461.9,322.7h-72.5c-0.4,0-0.7-0.3-0.7-0.7v-67.8c0-0.4,0.3-0.7,0.7-0.7h72.5c0.4,0,0.7,0.3,0.7,0.7V322&#10;&#9;&#9;C462.6,322.4,462.2,322.7,461.9,322.7z M390.1,321.3h71.1v-66.4h-71.1V321.3z"/>
	<path class="st2_data-processing-93" d="M389.4,308.8h72.4c3.2,0,5.8,2.6,5.8,5.8v12.3c0,3.2-2.6,5.8-5.8,5.8h-72.4c-3.2,0-5.8-2.6-5.8-5.8v-12.3&#10;&#9;&#9;C383.6,311.4,386.2,308.8,389.4,308.8z"/>
	<path class="st1_data-processing-93" d="M461.8,333.2h-72.4c-3.5,0-6.4-2.9-6.4-6.5v-12.2c0-3.6,2.9-6.5,6.5-6.5h72.4c3.6,0,6.5,2.9,6.5,6.5v12.2&#10;&#9;&#9;C468.3,330.4,465.4,333.3,461.8,333.2C461.9,333.3,461.9,333.3,461.8,333.2z M389.4,309.5c-2.8,0-5.1,2.3-5.1,5.1v12.2&#10;&#9;&#9;c0,2.8,2.3,5.1,5.1,5.1h72.4c2.8,0,5.1-2.3,5.1-5.1v-12.2c0-2.8-2.3-5.1-5.1-5.1H389.4z"/>
	<path class="st2_data-processing-93" d="M389.4,279.8h72.4c3.2,0,5.8,2.6,5.8,5.8v12.3c0,3.2-2.6,5.8-5.8,5.8h-72.4c-3.2,0-5.8-2.6-5.8-5.8v-12.3&#10;&#9;&#9;C383.6,282.4,386.2,279.8,389.4,279.8z"/>
	<path class="st1_data-processing-93" d="M461.8,304.3h-72.4c-3.5,0-6.4-2.9-6.4-6.5v-12.2c0-3.6,2.9-6.5,6.5-6.5h72.4c3.6,0,6.5,2.9,6.5,6.5v12.2&#10;&#9;&#9;C468.3,301.4,465.4,304.3,461.8,304.3C461.9,304.3,461.8,304.3,461.8,304.3z M389.4,280.5c-2.8,0-5.1,2.3-5.1,5.1v12.2&#10;&#9;&#9;c0,2.8,2.3,5.1,5.1,5.1h72.4c2.8,0,5.1-2.3,5.1-5.1v-12.2c0-2.8-2.3-5.1-5.1-5.1L389.4,280.5z"/>
	<path class="st2_data-processing-93" d="M389.4,250.8h72.4c3.2,0,5.8,2.6,5.8,5.8v12.3c0,3.2-2.6,5.8-5.8,5.8h-72.4c-3.2,0-5.8-2.6-5.8-5.8v-12.3&#10;&#9;&#9;C383.6,253.4,386.2,250.8,389.4,250.8z"/>
	<path class="st1_data-processing-93" d="M461.8,275.3h-72.4c-3.5,0-6.4-2.9-6.4-6.5v-12.2c0-3.6,2.9-6.5,6.5-6.5h72.4c3.6,0,6.5,2.9,6.5,6.5v12.2&#10;&#9;&#9;C468.3,272.4,465.4,275.3,461.8,275.3C461.9,275.3,461.8,275.3,461.8,275.3z M389.4,251.5c-2.8,0-5.1,2.3-5.1,5.1v12.2&#10;&#9;&#9;c0,2.8,2.3,5.1,5.1,5.1h72.4c2.8,0,5.1-2.3,5.1-5.1v-12.2c0-2.8-2.3-5.1-5.1-5.1L389.4,251.5z"/>
	<circle class="st2_data-processing-93" cx="394.1" cy="259.1" r="1.6"/>
	<path class="st0_data-processing-93" d="M394.1,261.3c-1.2,0-2.2-1-2.2-2.2s1-2.2,2.2-2.2s2.2,1,2.2,2.2l0,0C396.3,260.3,395.3,261.3,394.1,261.3z&#10;&#9;&#9; M394.1,258.1c-0.5,0-0.9,0.4-0.9,0.9c0,0.5,0.4,0.9,0.9,0.9c0.5,0,0.9-0.4,0.9-0.9l0,0C395,258.6,394.6,258.1,394.1,258.1z"/>
	<circle class="st2_data-processing-93" cx="400.8" cy="259.1" r="1.6"/>
	<path class="st0_data-processing-93" d="M400.8,261.3c-1.2,0-2.2-1-2.2-2.2s1-2.2,2.2-2.2s2.2,1,2.2,2.2l0,0C403,260.3,402,261.3,400.8,261.3z&#10;&#9;&#9; M400.8,258.1c-0.5,0-0.9,0.4-0.9,0.9c0,0.5,0.4,0.9,0.9,0.9c0.5,0,0.9-0.4,0.9-0.9l0,0C401.7,258.6,401.3,258.1,400.8,258.1z"/>
	<circle class="st2_data-processing-93" cx="407.5" cy="259.1" r="1.6"/>
	<path class="st0_data-processing-93" d="M407.5,261.3c-1.2,0-2.2-1-2.2-2.2s1-2.2,2.2-2.2s2.2,1,2.2,2.2l0,0C409.7,260.3,408.7,261.3,407.5,261.3z&#10;&#9;&#9; M407.5,258.1c-0.5,0-0.9,0.4-0.9,0.9c0,0.5,0.4,0.9,0.9,0.9c0.5,0,0.9-0.4,0.9-0.9l0,0C408.4,258.6,408,258.1,407.5,258.1z"/>
</g>
<g id="Gear_data-processing-93">
	<path class="st1_data-processing-93" d="M52.4,171.2c0.5-1.5,1-3,1.5-4.5c0.3-0.8,0.6-1.5,0.9-2.3c0.3-1,1.3-1.6,2.4-1.4c1.2,0.1,2.4,0.4,3.6,0.6&#10;&#9;&#9;c0.6,0.1,1.3,0.2,1.9,0.2c0.5,0,1-0.1,1.3-0.4c1.4-1.3,2.7-2.7,4-4.1c0.4-0.5,0.6-1.2,0.4-1.9c-0.3-1.5-0.7-2.9-1-4.4&#10;&#9;&#9;c-0.1-0.6-0.2-1.1-0.2-1.7c0-0.4,0.2-0.8,0.6-1.1c2.2-1.5,4.7-2.6,7.2-3.3c0.8-0.3,1.6,0.1,2.1,0.7c0.9,1.3,1.9,2.5,2.8,3.8&#10;&#9;&#9;c0.6,1,1.7,1.6,2.8,1.5c1.6-0.1,3.2-0.1,4.8-0.2c0.6,0,1.1-0.4,1.4-0.9c0.6-0.9,1.1-1.7,1.7-2.6s1-1.5,1.5-2.2&#10;&#9;&#9;c0.5-0.7,1.4-1.1,2.2-0.8c2.2,0.8,4.4,1.5,6.6,2.4c0.8,0.3,1.3,1.2,1.2,2.1c-0.1,1.2-0.4,2.4-0.6,3.6c-0.1,0.6-0.2,1.1-0.2,1.7&#10;&#9;&#9;c-0.1,0.7,0.2,1.5,0.7,2c1.2,1.1,2.3,2.2,3.4,3.3c0.7,0.7,1.7,1,2.6,0.7c1.6-0.3,3.1-0.7,4.7-1.1c1.1-0.4,2.2,0.2,2.6,1.2&#10;&#9;&#9;c0.9,1.9,1.8,3.8,2.6,5.7c0.7,1.1,0.3,2.4-0.7,3.1c0,0-0.1,0-0.1,0.1c-0.8,0.6-1.7,1.2-2.5,1.8c-0.6,0.4-1.2,0.9-1.8,1.4&#10;&#9;&#9;c-0.5,0.4-0.8,1-0.7,1.6c0,1.6,0.1,3.3,0.1,4.9c0,0.9,0.5,1.7,1.3,2.2c0.9,0.5,1.8,1.1,2.7,1.6c0.6,0.3,1.1,0.7,1.6,1.1&#10;&#9;&#9;c0.8,0.5,1.1,1.5,0.7,2.4c-0.7,2-1.5,4-2.2,5.9c-0.1,0.3-0.3,0.6-0.5,0.9c-0.4,0.7-1.1,1-1.9,0.9l-4.3-0.7c-0.1,0-0.2,0-0.3,0&#10;&#9;&#9;c-1.2-0.3-2.5,0.1-3.3,1.1c-0.8,1-1.7,1.8-2.6,2.7c-0.8,0.8-1.1,2-0.8,3.1c0.3,1.4,0.7,2.8,1,4.2s0,2.1-1.3,2.8&#10;&#9;&#9;c-1.9,0.9-3.9,1.8-5.9,2.6c-0.9,0.5-2,0.1-2.6-0.7c-0.8-1-1.5-2-2.2-3c-1.5-2.1-1.9-2.4-4.6-2.2l-3.1,0.2c-1,0-1.9,0.6-2.4,1.4&#10;&#9;&#9;c-0.6,1-1.2,2.1-1.9,3.1c-0.3,0.5-0.7,1-1.2,1.5c-0.4,0.5-1.1,0.6-1.6,0.4c-2.1-0.8-4.2-1.5-6.2-2.3c-0.3-0.1-0.5-0.3-0.8-0.5&#10;&#9;&#9;c-0.7-0.3-1.1-1.1-1-1.8c0.2-1.4,0.5-2.8,0.7-4.2c0.1-0.4,0.1-0.9,0.1-1.3c0.1-0.7-0.2-1.4-0.7-1.9c-1.1-1-2.2-2.1-3.4-3.1&#10;&#9;&#9;c-0.7-0.6-1.6-0.9-2.5-0.6c-1.4,0.3-2.8,0.6-4.2,1h-0.2c-1.8,0.3-2.4,0.1-3.2-1.6c-0.9-1.9-1.7-3.8-2.5-5.7c-0.5-0.9-0.2-2,0.7-2.6&#10;&#9;&#9;c0,0,0.1,0,0.1,0c1.1-0.9,2.2-1.7,3.4-2.4c1.2-0.7,1.8-2,1.7-3.3c-0.1-1.5-0.1-3-0.2-4.5c0-0.6-0.3-1.2-0.9-1.6l-3.7-2.4&#10;&#9;&#9;c-0.9-0.4-1.5-1.1-2-2L52.4,171.2z M99.6,179.5c0-7.8-6.3-14.1-14.1-14.1c0,0-0.1,0-0.1,0c-7.7,0.2-13.8,6.5-13.9,14.1&#10;&#9;&#9;c0.1,7.7,6.3,13.9,14,14C94.6,193.6,100,185.8,99.6,179.5L99.6,179.5z"/>
	<path class="st1_data-processing-93" d="M77.5,213.4c-0.3,0-0.5-0.1-0.8-0.1l-1.7-0.6l-4.6-1.7c-0.3-0.1-0.6-0.3-0.8-0.5c-0.9-0.5-1.5-1.5-1.3-2.6&#10;&#9;&#9;l0.3-1.9c0.1-0.8,0.3-1.6,0.4-2.4c0.1-0.4,0.1-0.8,0.1-1.2c0.1-0.5-0.1-1-0.5-1.4c-1.1-0.9-2.1-1.9-3.1-2.9l-0.3-0.3&#10;&#9;&#9;c-0.5-0.5-1.2-0.7-1.8-0.4c-1,0.2-1.9,0.5-2.9,0.7l-1.5,0.3c-2.2,0.4-3,0-3.9-2s-1.8-4.1-2.5-5.7c-0.7-1.2-0.2-2.7,1-3.4&#10;&#9;&#9;c1.3-1,2.4-1.8,3.5-2.4c1-0.5,1.5-1.6,1.4-2.7c-0.1-0.9-0.1-1.8-0.1-2.8c0-0.6,0-1.1-0.1-1.7c0-0.4-0.2-0.8-0.5-1l-1.5-1l-2.2-1.3&#10;&#9;&#9;c-1-0.5-1.8-1.3-2.3-2.4c0-0.1,0-0.1,0-0.2v-0.5c0-0.1,0-0.1,0-0.2l0.5-1.3c0.3-1,0.7-2.1,1.1-3.1c0.3-0.8,0.6-1.5,0.9-2.3&#10;&#9;&#9;c0.5-1.3,1.7-2,3.1-1.9c0.8,0.1,1.6,0.2,2.4,0.4l1.2,0.2l0.5,0.1c0.4,0.1,0.9,0.1,1.3,0.2c0.3,0,0.6-0.1,0.9-0.2&#10;&#9;&#9;c1.5-1.4,2.8-2.8,4-4.1c0.3-0.4,0.4-0.8,0.2-1.3c-0.1-0.6-0.3-1.3-0.4-2s-0.4-1.6-0.5-2.4c-0.2-0.6-0.2-1.3-0.2-1.9&#10;&#9;&#9;c0.1-0.6,0.4-1.2,0.9-1.6c2.3-1.5,4.8-2.6,7.4-3.4c1-0.3,2.2,0.1,2.8,1c0.3,0.4,0.7,0.9,1,1.3c0.6,0.8,1.2,1.6,1.8,2.5&#10;&#9;&#9;c0.4,0.8,1.3,1.2,2.2,1.1c1-0.1,2.1-0.1,3.1-0.1l1.7-0.1c0.4,0,0.7-0.2,0.9-0.6c0.3-0.5,0.7-1,1-1.5l0.9-1.4&#10;&#9;&#9;c0.4-0.6,0.8-1.2,1.2-1.9c0.6-1,1.9-1.4,3-1c2.7,0.9,4.7,1.6,6.6,2.4c1.1,0.4,1.8,1.6,1.6,2.8c-0.1,0.8-0.2,1.7-0.4,2.5&#10;&#9;&#9;c-0.1,0.4-0.2,0.8-0.2,1.2s-0.2,1.1-0.2,1.7c-0.1,0.5,0.1,1.1,0.5,1.5l0.8,0.8c0.9,0.8,1.8,1.7,2.7,2.6c0.5,0.6,1.3,0.8,2,0.6&#10;&#9;&#9;l2.3-0.5c0.8-0.2,1.6-0.4,2.4-0.6c1.4-0.4,2.9,0.3,3.4,1.6c0.9,1.9,1.8,3.8,2.6,5.7c0.8,1.4,0.4,3.2-1,4c0,0,0,0,0,0&#10;&#9;&#9;c-0.5,0.4-1,0.7-1.5,1.1l-1,0.7c-0.6,0.4-1.2,0.9-1.7,1.4c-0.3,0.3-0.5,0.7-0.5,1.1v1.1c0,1.3,0.1,2.6,0.1,3.9c0,0.7,0.4,1.3,1,1.6&#10;&#9;&#9;l1.2,0.7c0.5,0.3,1,0.6,1.6,0.9c0.6,0.3,1.1,0.7,1.7,1.1c1,0.7,1.4,2,1,3.1c-0.7,2-1.5,4-2.2,6c-0.1,0.3-0.3,0.6-0.5,0.9&#10;&#9;&#9;c-0.5,0.9-1.5,1.4-2.6,1.2l-4.3-0.7l-0.4-0.1c-1-0.3-2,0.1-2.6,0.9c-0.6,0.7-1.2,1.3-1.8,2l-0.8,0.8c-0.7,0.6-0.9,1.6-0.6,2.5&#10;&#9;&#9;c0.4,1.6,0.7,2.9,1,4.2c0.5,1.4-0.2,3-1.6,3.5c0,0-0.1,0-0.1,0c-1.8,0.9-3.7,1.7-5.9,2.7c-1.2,0.6-2.7,0.2-3.4-0.9&#10;&#9;&#9;c-0.6-0.8-1.2-1.6-1.8-2.4l-0.4-0.6c-1.4-2-1.6-2.1-4-1.9l-1.8,0.1l-1.3,0.1c-0.8,0-1.5,0.4-1.9,1.1l-0.8,0.9&#10;&#9;&#9;c-0.4,0.7-0.8,1.4-1.3,2.1c-0.4,0.6-0.8,1.1-1.3,1.6C78.7,213.1,78.1,213.4,77.5,213.4z M64.1,196c0.8,0,1.6,0.3,2.2,0.9l0.3,0.3&#10;&#9;&#9;c1,1,2,1.9,3.1,2.9c0.7,0.6,1,1.5,0.9,2.4c0,0.5-0.1,0.9-0.1,1.4c-0.1,0.8-0.2,1.6-0.4,2.4l-0.3,1.9c-0.1,0.5,0.1,1,0.6,1.2&#10;&#9;&#9;l0.1,0.1c0.2,0.1,0.4,0.2,0.6,0.3c1.5,0.6,3,1.1,4.6,1.7l1.7,0.6c0.3,0.1,0.7,0,0.9-0.3c0.4-0.4,0.8-0.9,1.1-1.4&#10;&#9;&#9;c0.4-0.7,0.8-1.4,1.2-2l0.6-1.1c0.6-1.1,1.8-1.7,3-1.8l1.3-0.1l1.8-0.1c2.9-0.1,3.5,0.1,5.2,2.5l0.4,0.6c0.6,0.8,1.1,1.6,1.8,2.4&#10;&#9;&#9;c0.4,0.6,1.2,0.9,1.8,0.5c0,0,0,0,0,0c2.2-0.9,4.1-1.8,5.9-2.6c1.1-0.5,1.2-0.8,1-2s-0.6-2.6-1-4.1c-0.4-1.3,0-2.8,1-3.7&#10;&#9;&#9;c0.3-0.3,0.5-0.6,0.8-0.8c0.6-0.6,1.2-1.2,1.8-1.9c0.9-1.2,2.5-1.8,4-1.4h0.1h0.1l4.3,0.7c0.5,0.1,1-0.1,1.2-0.6&#10;&#9;&#9;c0.2-0.2,0.3-0.5,0.4-0.7c0.8-2,1.5-4,2.2-5.9c0.2-0.6,0-1.3-0.5-1.6c-0.5-0.4-1-0.7-1.6-1.1l-1.6-0.9l-1.2-0.7&#10;&#9;&#9;c-1-0.6-1.6-1.6-1.7-2.8c-0.1-1.3-0.1-2.6-0.1-3.9v-1.1c0-0.8,0.3-1.6,1-2.2c0.6-0.5,1.2-1,1.8-1.4l1.1-0.8c0.5-0.3,1-0.7,1.4-1&#10;&#9;&#9;c1-0.8,1.1-1.2,0.6-2.3c-0.8-1.9-1.7-3.8-2.6-5.7c-0.2-0.8-1.1-1.2-1.8-0.9c0,0-0.1,0-0.1,0c-0.8,0.2-1.6,0.4-2.4,0.6l-2.3,0.5&#10;&#9;&#9;c-1.2,0.3-2.4-0.1-3.2-0.9c-0.8-0.9-1.7-1.7-2.6-2.5l-0.8-0.8c-0.7-0.6-1.1-1.6-1-2.6c0-0.6,0.1-1.2,0.2-1.8&#10;&#9;&#9;c0.1-0.4,0.2-0.8,0.2-1.3c0.2-0.8,0.3-1.6,0.4-2.3c0.1-0.6-0.2-1.2-0.8-1.4c-1.9-0.7-3.9-1.4-6.6-2.4c-0.5-0.2-1.1,0-1.4,0.5&#10;&#9;&#9;c-0.4,0.6-0.8,1.2-1.2,1.8l-0.9,1.4l-1,1.5c-0.4,0.7-1.2,1.1-2,1.2l-1.7,0.1c-1,0-2,0.1-3.1,0.1c-1.4,0.1-2.7-0.5-3.4-1.7&#10;&#9;&#9;c-0.6-0.8-1.2-1.6-1.8-2.4l-1-1.3c-0.3-0.5-0.8-0.7-1.3-0.5c-2.5,0.7-4.8,1.8-7,3.2c-0.1,0.2-0.2,0.4-0.2,0.6c0,0.5,0,1,0.2,1.5&#10;&#9;&#9;c0.2,0.8,0.3,1.6,0.5,2.4s0.3,1.3,0.4,2c0.2,0.9,0,1.8-0.6,2.5c-1.2,1.2-2.6,2.7-4,4.1c-0.5,0.4-1.1,0.6-1.8,0.6&#10;&#9;&#9;c-0.5,0-1.1-0.1-1.6-0.2l-0.5-0.1c-0.4-0.1-0.8-0.1-1.2-0.2c-0.8-0.1-1.5-0.3-2.3-0.4c-0.7-0.1-1.4,0.3-1.7,1&#10;&#9;&#9;c-0.3,0.7-0.6,1.5-0.9,2.2c-0.4,1-0.7,2.1-1.1,3.1l-0.4,1.2v0.3c0.4,0.7,0.9,1.2,1.6,1.6l2.2,1.4l1.5,1c0.7,0.4,1.2,1.2,1.2,2.1&#10;&#9;&#9;c0,0.6,0.1,1.1,0.1,1.7c0,0.9,0.1,1.8,0.1,2.7c0.2,1.6-0.6,3.1-2,3.9c-1,0.7-2.1,1.4-3.4,2.4c-0.8,0.6-0.9,0.9-0.5,1.8&#10;&#9;&#9;c0.6,1.6,1.5,3.6,2.4,5.6c0.6,1.4,0.9,1.5,2.5,1.2l0.3,0.6l-0.2-0.7l1.3-0.3l2.9-0.7C63.5,196.1,63.8,196,64.1,196z M85.6,194.3&#10;&#9;&#9;L85.6,194.3c-8.2,0-14.8-6.5-14.8-14.7c0-8.2,6.5-14.8,14.7-14.8h0.1c8.1-0.1,14.8,6.4,14.9,14.6c0,0.1,0,0.1,0,0.2&#10;&#9;&#9;c0.1,3.8-1.4,7.4-4,10.1C93.5,192.6,89.6,194.3,85.6,194.3L85.6,194.3z M85.4,166.1c-3.5,0.1-6.8,1.5-9.2,4c-2.5,2.5-4,5.9-4,9.4&#10;&#9;&#9;c0,7.4,5.9,13.3,13.3,13.4l0,0c3.7,0,7.3-1.5,9.8-4.2c2.4-2.4,3.8-5.7,3.7-9.1l0,0c0-7.4-5.9-13.4-13.3-13.4&#10;&#9;&#9;C85.6,166.1,85.5,166.1,85.4,166.1L85.4,166.1z"/>
</g>
<g id="Graph_data-processing-93">
	<polygon class="st2_data-processing-93" points="195.2,264.7 182.2,271.3 195.2,277.8 208.2,271.3 &#9;"/>
	<path class="st0_data-processing-93" d="M195.2,278.5c-0.1,0-0.2,0-0.3-0.1l-13-6.6c-0.2-0.1-0.3-0.3-0.3-0.5c0-0.2,0.1-0.4,0.3-0.5l13-6.6&#10;&#9;&#9;c0.2-0.1,0.4-0.1,0.6,0l13,6.6c0.2,0.1,0.3,0.3,0.3,0.5c0,0.2-0.1,0.4-0.3,0.5l-13,6.6C195.4,278.4,195.3,278.5,195.2,278.5z&#10;&#9;&#9; M183.5,271.3l11.7,5.9l11.7-5.9l-11.7-5.9L183.5,271.3z"/>
	<polygon class="st2_data-processing-93" points="182.2,271.3 182.2,340.8 195.2,347.4 195.2,277.8 &#9;"/>
	<path class="st0_data-processing-93" d="M195.2,348c-0.1,0-0.2,0-0.3-0.1l-13-6.6c-0.2-0.1-0.3-0.3-0.3-0.5v-69.5c0-0.2,0.1-0.4,0.3-0.5&#10;&#9;&#9;c0.2-0.1,0.4-0.1,0.6,0l13,6.6c0.2,0.1,0.3,0.3,0.3,0.5v69.6c0,0.2-0.1,0.4-0.3,0.5C195.4,348,195.3,348,195.2,348z M182.8,340.4&#10;&#9;&#9;l11.8,6v-68.2l-11.8-6V340.4z"/>
	<polygon class="st2_data-processing-93" points="195.2,347.4 208.2,340.8 208.2,271.3 195.2,277.8 &#9;"/>
	<path class="st0_data-processing-93" d="M195.2,348c-0.1,0-0.2,0-0.3-0.1c-0.2-0.1-0.3-0.3-0.3-0.5v-69.6c0-0.2,0.1-0.4,0.3-0.5l13-6.6&#10;&#9;&#9;c0.2-0.1,0.4-0.1,0.6,0c0.2,0.1,0.3,0.3,0.3,0.5v69.6c0,0.2-0.1,0.4-0.3,0.5l-13,6.6C195.4,348,195.3,348,195.2,348z M195.8,278.2&#10;&#9;&#9;v68.2l11.8-6v-68.1L195.8,278.2z"/>
	<polygon class="st2_data-processing-93" points="241.2,290.8 228.1,297.4 241.2,303.9 254.2,297.4 &#9;"/>
	<path class="st0_data-processing-93" d="M241.2,304.5c-0.1,0-0.2,0-0.3-0.1l-13-6.6c-0.2-0.1-0.3-0.3-0.3-0.5c0-0.2,0.1-0.4,0.3-0.5l13-6.6&#10;&#9;&#9;c0.2-0.1,0.4-0.1,0.5,0l13,6.6c0.2,0.1,0.3,0.3,0.3,0.5c0,0.2-0.1,0.4-0.3,0.5l-13,6.6C241.4,304.5,241.3,304.5,241.2,304.5z&#10;&#9;&#9; M229.5,297.3l11.7,5.9l11.7-5.9l-11.7-5.9L229.5,297.3z"/>
	<polygon class="st2_data-processing-93" points="228.1,297.4 228.1,340.8 241.2,347.4 241.2,303.9 &#9;"/>
	<path class="st0_data-processing-93" d="M241.2,348c-0.1,0-0.2,0-0.3-0.1l-13-6.6c-0.2-0.1-0.3-0.3-0.3-0.5v-43.5c0-0.2,0.1-0.4,0.3-0.5&#10;&#9;&#9;c0.2-0.1,0.4-0.1,0.6,0l13,6.6c0.2,0.1,0.3,0.3,0.3,0.5v43.5c0,0.2-0.1,0.4-0.3,0.5C241.4,348,241.3,348,241.2,348z M228.8,340.4&#10;&#9;&#9;l11.8,6v-42.1l-11.8-6V340.4z"/>
	<polygon class="st2_data-processing-93" points="241.2,347.4 254.2,340.8 254.2,297.4 241.2,303.9 &#9;"/>
	<path class="st0_data-processing-93" d="M241.2,348c-0.1,0-0.2,0-0.3-0.1c-0.2-0.1-0.3-0.3-0.3-0.5v-43.5c0-0.2,0.1-0.4,0.3-0.5l13-6.6&#10;&#9;&#9;c0.2-0.1,0.4-0.1,0.6,0c0.2,0.1,0.3,0.3,0.3,0.5v43.5c0,0.2-0.1,0.4-0.3,0.5l-13,6.6C241.4,348,241.3,348,241.2,348z M241.8,304.3&#10;&#9;&#9;v42.1l11.8-6v-42.1L241.8,304.3z"/>
	<polygon class="st2_data-processing-93" points="287.2,305.6 274.1,312.2 287.2,318.8 300.2,312.2 &#9;"/>
	<path class="st0_data-processing-93" d="M287.2,319.4c-0.1,0-0.2,0-0.3-0.1l-13-6.6c-0.2-0.1-0.3-0.3-0.3-0.5c0-0.2,0.1-0.4,0.3-0.5l13-6.6&#10;&#9;&#9;c0.2-0.1,0.4-0.1,0.5,0l13,6.6c0.2,0.1,0.3,0.3,0.3,0.5c0,0.2-0.1,0.4-0.3,0.5l-13,6.6C287.4,319.4,287.3,319.4,287.2,319.4z&#10;&#9;&#9; M275.5,312.2l11.7,5.9l11.7-5.9l-11.7-5.9L275.5,312.2z"/>
	<polygon class="st2_data-processing-93" points="274.1,312.2 274.1,340.8 287.2,347.4 287.2,318.8 &#9;"/>
	<path class="st0_data-processing-93" d="M287.2,348c-0.1,0-0.2,0-0.3-0.1l-13-6.6c-0.2-0.1-0.3-0.3-0.3-0.5v-28.6c0-0.2,0.1-0.4,0.3-0.5&#10;&#9;&#9;c0.2-0.1,0.4-0.1,0.6,0l13,6.6c0.2,0.1,0.3,0.3,0.3,0.5v28.6c0,0.2-0.1,0.4-0.3,0.5C287.4,348,287.3,348,287.2,348z M274.8,340.4&#10;&#9;&#9;l11.8,6v-27.3l-11.8-6V340.4z"/>
	<polygon class="st2_data-processing-93" points="287.2,347.4 300.2,340.8 300.2,312.2 287.2,318.8 &#9;"/>
	<path class="st0_data-processing-93" d="M287.2,348c-0.1,0-0.2,0-0.3-0.1c-0.2-0.1-0.3-0.3-0.3-0.5v-28.6c0-0.2,0.1-0.4,0.3-0.5l13-6.6&#10;&#9;&#9;c0.2-0.1,0.4-0.1,0.6,0c0.2,0.1,0.3,0.3,0.3,0.5v28.6c0,0.2-0.1,0.4-0.3,0.5l-13,6.6C287.4,348,287.3,348,287.2,348z M287.8,319.1&#10;&#9;&#9;v27.3l11.8-6v-27.2L287.8,319.1z"/>
</g>
<g id="Line_of_Text_data-processing-93">
	<path class="st3_data-processing-93 targetColor" d="M318.3,265.3h-44.1c-0.3,0-0.6-0.2-0.7-0.5c0-0.3,0.2-0.6,0.5-0.7c0.1,0,0.1,0,0.2,0h44.1&#10;&#9;&#9;c0.3,0,0.6,0.2,0.7,0.5c0,0.3-0.2,0.6-0.5,0.7C318.4,265.3,318.4,265.3,318.3,265.3z" style="fill: #0f6cbd;"/>
	<path class="st3_data-processing-93 targetColor" d="M318.3,274.3h-44.1c-0.3,0-0.6-0.3-0.6-0.6c0-0.3,0.3-0.6,0.6-0.6h44.1c0.3,0,0.6,0.3,0.6,0.6&#10;&#9;&#9;S318.6,274.3,318.3,274.3z" style="fill: #0f6cbd;"/>
	<path class="st3_data-processing-93 targetColor" d="M318.3,283.3h-44.1c-0.3,0-0.6-0.3-0.6-0.6c0-0.3,0.3-0.6,0.6-0.6l0,0h44.1c0.3,0,0.6,0.3,0.6,0.6&#10;&#9;&#9;C318.9,283,318.6,283.3,318.3,283.3z" style="fill: #0f6cbd;"/>
	<path class="st3_data-processing-93 targetColor" d="M307.2,292.3h-33c-0.3,0-0.6-0.2-0.7-0.5c0-0.3,0.2-0.6,0.5-0.7c0.1,0,0.1,0,0.2,0h33c0.3,0,0.6,0.3,0.5,0.7&#10;&#9;&#9;C307.7,292,307.5,292.2,307.2,292.3z" style="fill: #0f6cbd;"/>
</g>
</svg>